<?xml version="1.0" standalone="no"?>
<!DOCTYPE svg PUBLIC "-//W3C//DTD SVG 20010904//EN" "http://www.w3.org/TR/2001/REC-SVG-20010904/DTD/svg10.dtd">
<svg version="1.0" xmlns="http://www.w3.org/2000/svg"
  width="1024.000000pt" height="1024.000000pt" viewBox="200 200 600 600"
  preserveAspectRatio="xMidYMid meet">

  <g transform="translate(0.000000,1024.000000) scale(0.100000,-0.100000)"
    fill="#000000" stroke="none">
    <path
      d="M4964 7948 c-1 -136 -4 -163 -28 -242 -35 -117 -110 -260 -190 -366
-35 -47 -139 -166 -231 -265 -426 -458 -605 -747 -738 -1185 -63 -206 -81
-343 -81 -600 0 -241 15 -367 69 -580 100 -395 324 -791 630 -1115 63 -67 66
-69 61 -38 -31 188 -32 468 -1 634 54 297 155 538 435 1029 304 535 428 825
495 1155 94 467 23 899 -232 1409 -48 96 -138 249 -175 299 -11 14 -13 -7 -14
-135z" />
    <path
      d="M4134 7255 c-365 -112 -701 -318 -971 -595 -192 -197 -330 -394 -453
-645 -117 -239 -187 -459 -227 -715 -22 -141 -25 -517 -5 -655 69 -484 256
-924 546 -1286 84 -105 254 -279 366 -374 411 -349 900 -559 1441 -620 74 -8
156 -15 182 -15 45 0 48 1 42 23 -11 38 -114 217 -192 335 -108 164 -198 267
-384 442 -443 418 -609 628 -799 1015 -97 197 -143 313 -196 497 -199 694 -75
1495 325 2101 122 184 277 363 414 478 70 59 61 60 -89 14z" />
    <path
      d="M5995 7247 c80 -60 250 -230 331 -331 326 -403 496 -899 497 -1446 0
-353 -64 -656 -212 -1005 -149 -350 -338 -627 -702 -1027 -198 -216 -302 -346
-428 -533 -100 -148 -247 -394 -291 -487 l-30 -63 37 -3 c21 -2 97 2 168 8
505 45 1019 253 1425 577 107 85 338 315 415 412 307 390 502 859 554 1333 35
317 -6 705 -109 1019 -206 634 -648 1143 -1246 1434 -115 56 -345 138 -424
150 l-45 7 60 -45z" />
    <path
      d="M5624 7040 c3 -14 13 -79 22 -145 33 -248 3 -600 -76 -880 -84 -298
-178 -509 -500 -1125 -198 -378 -293 -616 -342 -864 -32 -159 -32 -449 0 -619
36 -193 123 -439 228 -648 56 -114 165 -311 169 -307 1 2 8 63 14 137 15 166
34 268 73 391 73 229 163 363 443 660 65 69 156 168 203 220 295 329 471 679
539 1075 21 125 24 452 5 570 -62 377 -222 725 -587 1275 -128 193 -198 288
-191 260z" />
  </g>
</svg>
